<svg xmlns="http://www.w3.org/2000/svg" xmlns:xlink="http://www.w3.org/1999/xlink" version="1.1"
x="0px" y="0px" viewBox="0 0 100 100" xml:space="preserve">
<g>
<path d="M50,95.8C50,95.8,50,95.8,50,95.8c-12.3,0-23.8-4.8-32.4-13.4C8.9,73.7,4.2,62.2,4.2,49.9c0-12.2,4.8-23.7,13.4-32.4   C26.3,8.9,37.8,4.1,50,4.1c0,0,0,0,0,0c6.5,0,12.7,1.3,18.6,4c2.1,0.9,3,3.4,2.1,5.5c-0.9,2.1-3.4,3-5.5,2.1   c-4.8-2.2-10-3.2-15.2-3.2c0,0,0,0,0,0c-10,0-19.4,3.9-26.5,11c-7.1,7.1-11,16.5-11,26.5c0,10,3.9,19.4,11,26.5   c7.1,7.1,16.5,11,26.5,11c0,0,0,0,0,0c20.7,0,37.5-16.8,37.5-37.5v-3.8c0-2.3,1.9-4.2,4.2-4.2s4.2,1.9,4.2,4.2V50   C95.8,75.3,75.3,95.8,50,95.8z"/>
</g>
<g>
<path d="M50,62.5c-1.1,0-2.2-0.4-2.9-1.2L34.6,48.8c-1.6-1.6-1.6-4.3,0-5.9c1.6-1.6,4.3-1.6,5.9,0l9.6,9.6l38.7-38.8   c1.6-1.6,4.3-1.6,5.9,0s1.6,4.3,0,5.9L52.9,61.3C52.2,62.1,51.1,62.5,50,62.5C50,62.5,50,62.5,50,62.5z"/>
</g>
</svg>
